# xmcd CD database file
#
# Track frame offsets:
#	150
#	24825
#	50551
#	68326
#	80777
#	103952
#	127653
#	150828
#	177529
#	204830
#	228906
#
# Disc length: 3461 seconds
#
# Revision: 0
# Processed by: cddbd v1.5.2PL0 Copyright (c) Steve Scherf et al.
# Submitted via: CDex 1.51
#
DISCID=7d0d830b
DTITLE=Dan Nimmer Trio - Kelly Blue
DYEAR=2006
DGENRE=Jazz
TTITLE0=No Blues
TTITLE1=Brimsha Man
TTITLE2=On A Clear Day
TTITLE3=Quick Jump
TTITLE4=Close Your Eyes
TTITLE5=Eleanor
TTITLE6=Kelly Blue
TTITLE7=On The Trail
TTITLE8=If You Could See Me Now
TTITLE9=Autumn Leaves
TTITLE10=Temperance
EXTD=YEAR: 2006
EXTT0=
EXTT1=
EXTT2=
EXTT3=
EXTT4=
EXTT5=
EXTT6=
EXTT7=
EXTT8=
EXTT9=
EXTT10=
PLAYORDER=
